<mxfile host="app.diagrams.net" modified="2024-03-12T11:20:59.402Z" agent="Mozilla/5.0 (Windows NT 10.0; Win64; x64) AppleWebKit/537.36 (KHTML, like Gecko) Chrome/122.0.0.0 Safari/537.36" etag="HsthKO_kqN9dOrQGC-NF" version="24.0.4" type="device">
  <diagram id="C5RBs43oDa-KdzZeNtuy" name="Page-1">
    <mxGraphModel dx="1050" dy="1699" grid="1" gridSize="10" guides="1" tooltips="1" connect="1" arrows="1" fold="1" page="1" pageScale="1" pageWidth="827" pageHeight="1169" math="0" shadow="0">
      <root>
        <mxCell id="WIyWlLk6GJQsqaUBKTNV-0" />
        <mxCell id="WIyWlLk6GJQsqaUBKTNV-1" parent="WIyWlLk6GJQsqaUBKTNV-0" />
        <mxCell id="u9YOr9Z6LQnH6dlma_fi-6" value="REGISTRAZIONE" style="rounded=0;whiteSpace=wrap;html=1;fontStyle=2;fontSize=13;" vertex="1" parent="WIyWlLk6GJQsqaUBKTNV-1">
          <mxGeometry x="20" y="20" width="140" height="50" as="geometry" />
        </mxCell>
        <mxCell id="u9YOr9Z6LQnH6dlma_fi-7" value="VISITATORE" style="rounded=0;whiteSpace=wrap;html=1;fontStyle=2;fontSize=13;" vertex="1" parent="WIyWlLk6GJQsqaUBKTNV-1">
          <mxGeometry x="670" y="80" width="140" height="50" as="geometry" />
        </mxCell>
        <mxCell id="u9YOr9Z6LQnH6dlma_fi-8" value="PROTAGONISTA" style="swimlane;fontStyle=0;align=center;verticalAlign=middle;childLayout=stackLayout;horizontal=1;startSize=40;horizontalStack=0;resizeParent=1;resizeLast=0;collapsible=1;marginBottom=0;rounded=0;shadow=0;strokeWidth=1;fontSize=13;" vertex="1" parent="WIyWlLk6GJQsqaUBKTNV-1">
          <mxGeometry x="650" y="250" width="160" height="66" as="geometry">
            <mxRectangle x="650" y="250" width="160" height="26" as="alternateBounds" />
          </mxGeometry>
        </mxCell>
        <mxCell id="u9YOr9Z6LQnH6dlma_fi-9" value="- Inventario" style="text;align=left;verticalAlign=top;spacingLeft=4;spacingRight=4;overflow=hidden;rotatable=0;points=[[0,0.5],[1,0.5]];portConstraint=eastwest;" vertex="1" parent="u9YOr9Z6LQnH6dlma_fi-8">
          <mxGeometry y="40" width="160" height="26" as="geometry" />
        </mxCell>
        <mxCell id="u9YOr9Z6LQnH6dlma_fi-17" value="UTENTE" style="swimlane;fontStyle=0;align=center;verticalAlign=middle;childLayout=stackLayout;horizontal=1;startSize=40;horizontalStack=0;resizeParent=1;resizeLast=0;collapsible=1;marginBottom=0;rounded=0;shadow=0;strokeWidth=1;fontSize=13;" vertex="1" parent="WIyWlLk6GJQsqaUBKTNV-1">
          <mxGeometry x="230" y="20" width="160" height="90" as="geometry">
            <mxRectangle x="550" y="140" width="160" height="26" as="alternateBounds" />
          </mxGeometry>
        </mxCell>
        <mxCell id="u9YOr9Z6LQnH6dlma_fi-18" value="- Username" style="text;align=left;verticalAlign=top;spacingLeft=4;spacingRight=4;overflow=hidden;rotatable=0;points=[[0,0.5],[1,0.5]];portConstraint=eastwest;" vertex="1" parent="u9YOr9Z6LQnH6dlma_fi-17">
          <mxGeometry y="40" width="160" height="20" as="geometry" />
        </mxCell>
        <mxCell id="u9YOr9Z6LQnH6dlma_fi-19" value="- Password" style="text;align=left;verticalAlign=top;spacingLeft=4;spacingRight=4;overflow=hidden;rotatable=0;points=[[0,0.5],[1,0.5]];portConstraint=eastwest;" vertex="1" parent="u9YOr9Z6LQnH6dlma_fi-17">
          <mxGeometry y="60" width="160" height="20" as="geometry" />
        </mxCell>
        <mxCell id="u9YOr9Z6LQnH6dlma_fi-20" value="STORIA INTERATTIVA" style="rounded=0;whiteSpace=wrap;html=1;fontStyle=2;fontSize=13;" vertex="1" parent="WIyWlLk6GJQsqaUBKTNV-1">
          <mxGeometry x="500" y="150" width="140" height="50" as="geometry" />
        </mxCell>
        <mxCell id="u9YOr9Z6LQnH6dlma_fi-21" value="CATALOGO" style="rounded=0;whiteSpace=wrap;html=1;fontStyle=2;fontSize=13;" vertex="1" parent="WIyWlLk6GJQsqaUBKTNV-1">
          <mxGeometry x="480" y="20" width="140" height="50" as="geometry" />
        </mxCell>
        <mxCell id="u9YOr9Z6LQnH6dlma_fi-22" value="INDOVINELLO" style="rounded=0;whiteSpace=wrap;html=1;fontStyle=2;fontSize=13;" vertex="1" parent="WIyWlLk6GJQsqaUBKTNV-1">
          <mxGeometry x="40" y="320" width="140" height="50" as="geometry" />
        </mxCell>
        <mxCell id="u9YOr9Z6LQnH6dlma_fi-23" value="OGGETTO" style="rounded=0;whiteSpace=wrap;html=1;fontStyle=2;fontSize=13;" vertex="1" parent="WIyWlLk6GJQsqaUBKTNV-1">
          <mxGeometry x="440" y="320" width="140" height="50" as="geometry" />
        </mxCell>
        <mxCell id="u9YOr9Z6LQnH6dlma_fi-24" value="SCELTA" style="rounded=0;whiteSpace=wrap;html=1;fontStyle=2;fontSize=13;" vertex="1" parent="WIyWlLk6GJQsqaUBKTNV-1">
          <mxGeometry x="245" y="250" width="140" height="50" as="geometry" />
        </mxCell>
        <mxCell id="u9YOr9Z6LQnH6dlma_fi-25" value="" style="endArrow=none;html=1;rounded=0;exitX=1;exitY=0.5;exitDx=0;exitDy=0;" edge="1" parent="WIyWlLk6GJQsqaUBKTNV-1" source="u9YOr9Z6LQnH6dlma_fi-6">
          <mxGeometry width="50" height="50" relative="1" as="geometry">
            <mxPoint x="390" y="70" as="sourcePoint" />
            <mxPoint x="230" y="45" as="targetPoint" />
          </mxGeometry>
        </mxCell>
        <mxCell id="u9YOr9Z6LQnH6dlma_fi-26" value="*" style="edgeLabel;html=1;align=center;verticalAlign=middle;resizable=0;points=[];fontSize=20;" vertex="1" connectable="0" parent="u9YOr9Z6LQnH6dlma_fi-25">
          <mxGeometry x="-0.008" y="-1" relative="1" as="geometry">
            <mxPoint x="-145" y="44" as="offset" />
          </mxGeometry>
        </mxCell>
        <mxCell id="u9YOr9Z6LQnH6dlma_fi-27" value="" style="resizable=0;align=right;verticalAlign=bottom;labelBackgroundColor=none;fontSize=12;" connectable="0" vertex="1" parent="WIyWlLk6GJQsqaUBKTNV-1">
          <mxGeometry x="430" y="250" as="geometry">
            <mxPoint x="-259" y="-182" as="offset" />
          </mxGeometry>
        </mxCell>
        <mxCell id="u9YOr9Z6LQnH6dlma_fi-28" value="SCENARIO" style="swimlane;fontStyle=0;align=center;verticalAlign=middle;childLayout=stackLayout;horizontal=1;startSize=40;horizontalStack=0;resizeParent=1;resizeLast=0;collapsible=1;marginBottom=0;rounded=0;shadow=0;strokeWidth=1;fontSize=13;" vertex="1" parent="WIyWlLk6GJQsqaUBKTNV-1">
          <mxGeometry x="40" y="170" width="160" height="66" as="geometry">
            <mxRectangle x="550" y="140" width="160" height="26" as="alternateBounds" />
          </mxGeometry>
        </mxCell>
        <mxCell id="u9YOr9Z6LQnH6dlma_fi-29" value="- Testo" style="text;align=left;verticalAlign=top;spacingLeft=4;spacingRight=4;overflow=hidden;rotatable=0;points=[[0,0.5],[1,0.5]];portConstraint=eastwest;" vertex="1" parent="u9YOr9Z6LQnH6dlma_fi-28">
          <mxGeometry y="40" width="160" height="26" as="geometry" />
        </mxCell>
        <mxCell id="u9YOr9Z6LQnH6dlma_fi-31" value="&lt;span style=&quot;color: rgb(0, 0, 0); font-family: Helvetica; font-size: 12px; font-style: normal; font-variant-ligatures: normal; font-variant-caps: normal; font-weight: 400; letter-spacing: normal; orphans: 2; text-align: right; text-indent: 0px; text-transform: none; widows: 2; word-spacing: 0px; -webkit-text-stroke-width: 0px; white-space: nowrap; background-color: rgb(251, 251, 251); text-decoration-thickness: initial; text-decoration-style: initial; text-decoration-color: initial; display: inline !important; float: none;&quot;&gt;1&lt;/span&gt;" style="text;whiteSpace=wrap;html=1;" vertex="1" parent="WIyWlLk6GJQsqaUBKTNV-1">
          <mxGeometry x="220" y="43" width="10" height="20" as="geometry" />
        </mxCell>
        <mxCell id="u9YOr9Z6LQnH6dlma_fi-32" value="&lt;span style=&quot;color: rgb(0, 0, 0); font-family: Helvetica; font-size: 12px; font-style: normal; font-variant-ligatures: normal; font-variant-caps: normal; font-weight: 400; letter-spacing: normal; orphans: 2; text-align: right; text-indent: 0px; text-transform: none; widows: 2; word-spacing: 0px; -webkit-text-stroke-width: 0px; white-space: nowrap; background-color: rgb(251, 251, 251); text-decoration-thickness: initial; text-decoration-style: initial; text-decoration-color: initial; display: inline !important; float: none;&quot;&gt;1&lt;/span&gt;" style="text;whiteSpace=wrap;html=1;" vertex="1" parent="WIyWlLk6GJQsqaUBKTNV-1">
          <mxGeometry x="160" y="43" width="10" height="20" as="geometry" />
        </mxCell>
        <mxCell id="u9YOr9Z6LQnH6dlma_fi-36" value="" style="endArrow=none;html=1;rounded=0;exitX=1;exitY=0.5;exitDx=0;exitDy=0;entryX=0;entryY=0.5;entryDx=0;entryDy=0;" edge="1" parent="WIyWlLk6GJQsqaUBKTNV-1" target="u9YOr9Z6LQnH6dlma_fi-21">
          <mxGeometry width="50" height="50" relative="1" as="geometry">
            <mxPoint x="390" y="44.5" as="sourcePoint" />
            <mxPoint x="460" y="44.5" as="targetPoint" />
          </mxGeometry>
        </mxCell>
        <mxCell id="u9YOr9Z6LQnH6dlma_fi-37" value="*" style="edgeLabel;html=1;align=center;verticalAlign=middle;resizable=0;points=[];fontSize=20;labelBackgroundColor=none;" vertex="1" connectable="0" parent="u9YOr9Z6LQnH6dlma_fi-36">
          <mxGeometry x="-0.008" y="-1" relative="1" as="geometry">
            <mxPoint x="-224" y="134" as="offset" />
          </mxGeometry>
        </mxCell>
        <mxCell id="u9YOr9Z6LQnH6dlma_fi-39" value="" style="endArrow=none;html=1;rounded=0;entryX=0;entryY=0.5;entryDx=0;entryDy=0;exitX=1;exitY=0.5;exitDx=0;exitDy=0;" edge="1" parent="WIyWlLk6GJQsqaUBKTNV-1" source="u9YOr9Z6LQnH6dlma_fi-18" target="u9YOr9Z6LQnH6dlma_fi-20">
          <mxGeometry width="50" height="50" relative="1" as="geometry">
            <mxPoint x="400" y="60" as="sourcePoint" />
            <mxPoint x="440" y="180" as="targetPoint" />
            <Array as="points">
              <mxPoint x="440" y="70" />
              <mxPoint x="440" y="175" />
            </Array>
          </mxGeometry>
        </mxCell>
        <mxCell id="u9YOr9Z6LQnH6dlma_fi-40" value="" style="endArrow=none;html=1;rounded=0;exitX=1;exitY=0.303;exitDx=0;exitDy=0;exitPerimeter=0;" edge="1" parent="WIyWlLk6GJQsqaUBKTNV-1" source="u9YOr9Z6LQnH6dlma_fi-28">
          <mxGeometry width="50" height="50" relative="1" as="geometry">
            <mxPoint x="200" y="190" as="sourcePoint" />
            <mxPoint x="500" y="190" as="targetPoint" />
          </mxGeometry>
        </mxCell>
        <mxCell id="u9YOr9Z6LQnH6dlma_fi-41" value="" style="endArrow=none;html=1;rounded=0;entryX=0.566;entryY=1.016;entryDx=0;entryDy=0;entryPerimeter=0;" edge="1" parent="WIyWlLk6GJQsqaUBKTNV-1" target="u9YOr9Z6LQnH6dlma_fi-7">
          <mxGeometry width="50" height="50" relative="1" as="geometry">
            <mxPoint x="640" y="170" as="sourcePoint" />
            <mxPoint x="749" y="150" as="targetPoint" />
            <Array as="points">
              <mxPoint x="749" y="170" />
            </Array>
          </mxGeometry>
        </mxCell>
        <mxCell id="u9YOr9Z6LQnH6dlma_fi-42" value="" style="endArrow=none;html=1;rounded=0;entryX=0.189;entryY=0.992;entryDx=0;entryDy=0;entryPerimeter=0;" edge="1" parent="WIyWlLk6GJQsqaUBKTNV-1" target="u9YOr9Z6LQnH6dlma_fi-29">
          <mxGeometry width="50" height="50" relative="1" as="geometry">
            <mxPoint x="70" y="320" as="sourcePoint" />
            <mxPoint x="70" y="240" as="targetPoint" />
          </mxGeometry>
        </mxCell>
        <mxCell id="u9YOr9Z6LQnH6dlma_fi-43" value="" style="endArrow=none;html=1;rounded=0;entryX=0.463;entryY=-0.012;entryDx=0;entryDy=0;entryPerimeter=0;" edge="1" parent="WIyWlLk6GJQsqaUBKTNV-1" target="u9YOr9Z6LQnH6dlma_fi-24">
          <mxGeometry width="50" height="50" relative="1" as="geometry">
            <mxPoint x="200" y="200" as="sourcePoint" />
            <mxPoint x="310" y="230" as="targetPoint" />
            <Array as="points">
              <mxPoint x="310" y="200" />
            </Array>
          </mxGeometry>
        </mxCell>
        <mxCell id="u9YOr9Z6LQnH6dlma_fi-44" value="" style="endArrow=none;html=1;rounded=0;exitX=0.826;exitY=1.004;exitDx=0;exitDy=0;exitPerimeter=0;" edge="1" parent="WIyWlLk6GJQsqaUBKTNV-1" source="u9YOr9Z6LQnH6dlma_fi-24">
          <mxGeometry width="50" height="50" relative="1" as="geometry">
            <mxPoint x="340" y="345" as="sourcePoint" />
            <mxPoint x="440" y="344.75" as="targetPoint" />
            <Array as="points">
              <mxPoint x="360" y="345" />
            </Array>
          </mxGeometry>
        </mxCell>
        <mxCell id="u9YOr9Z6LQnH6dlma_fi-45" value="" style="endArrow=none;html=1;rounded=0;exitX=1.001;exitY=0.396;exitDx=0;exitDy=0;exitPerimeter=0;entryX=0.186;entryY=1.023;entryDx=0;entryDy=0;entryPerimeter=0;" edge="1" parent="WIyWlLk6GJQsqaUBKTNV-1" source="u9YOr9Z6LQnH6dlma_fi-23" target="u9YOr9Z6LQnH6dlma_fi-9">
          <mxGeometry width="50" height="50" relative="1" as="geometry">
            <mxPoint x="601" y="310" as="sourcePoint" />
            <mxPoint x="680" y="354.75" as="targetPoint" />
            <Array as="points">
              <mxPoint x="680" y="340" />
            </Array>
          </mxGeometry>
        </mxCell>
        <mxCell id="u9YOr9Z6LQnH6dlma_fi-46" value="" style="endArrow=none;html=1;rounded=0;entryX=0;entryY=0.364;entryDx=0;entryDy=0;entryPerimeter=0;exitX=0.5;exitY=1;exitDx=0;exitDy=0;" edge="1" parent="WIyWlLk6GJQsqaUBKTNV-1" source="u9YOr9Z6LQnH6dlma_fi-20" target="u9YOr9Z6LQnH6dlma_fi-8">
          <mxGeometry width="50" height="50" relative="1" as="geometry">
            <mxPoint x="560" y="220" as="sourcePoint" />
            <mxPoint x="440" y="230" as="targetPoint" />
            <Array as="points">
              <mxPoint x="570" y="274" />
            </Array>
          </mxGeometry>
        </mxCell>
        <mxCell id="u9YOr9Z6LQnH6dlma_fi-56" value="*" style="edgeLabel;html=1;align=center;verticalAlign=middle;resizable=0;points=[];fontSize=20;labelBackgroundColor=none;" vertex="1" connectable="0" parent="WIyWlLk6GJQsqaUBKTNV-1">
          <mxGeometry x="220.0037578176773" y="212.99720297541126" as="geometry">
            <mxPoint x="-10" y="1" as="offset" />
          </mxGeometry>
        </mxCell>
        <mxCell id="u9YOr9Z6LQnH6dlma_fi-57" value="*" style="edgeLabel;html=1;align=center;verticalAlign=middle;resizable=0;points=[];fontSize=20;labelBackgroundColor=none;" vertex="1" connectable="0" parent="WIyWlLk6GJQsqaUBKTNV-1">
          <mxGeometry x="225.0037578176773" y="189.99720297541126" as="geometry">
            <mxPoint x="-143" y="65" as="offset" />
          </mxGeometry>
        </mxCell>
        <mxCell id="u9YOr9Z6LQnH6dlma_fi-58" value="&lt;font style=&quot;font-size: 12px;&quot;&gt;1&lt;/font&gt;" style="edgeLabel;html=1;align=center;verticalAlign=middle;resizable=0;points=[];fontSize=20;labelBackgroundColor=none;" vertex="1" connectable="0" parent="WIyWlLk6GJQsqaUBKTNV-1">
          <mxGeometry x="245.0037578176773" y="199.99720297541126" as="geometry">
            <mxPoint x="-164" y="105" as="offset" />
          </mxGeometry>
        </mxCell>
        <mxCell id="u9YOr9Z6LQnH6dlma_fi-59" value="&lt;font style=&quot;font-size: 12px;&quot;&gt;1&lt;/font&gt;" style="edgeLabel;html=1;align=center;verticalAlign=middle;resizable=0;points=[];fontSize=20;labelBackgroundColor=none;" vertex="1" connectable="0" parent="WIyWlLk6GJQsqaUBKTNV-1">
          <mxGeometry x="460.0037578176773" y="129.99720297541126" as="geometry">
            <mxPoint x="-164" y="105" as="offset" />
          </mxGeometry>
        </mxCell>
        <mxCell id="u9YOr9Z6LQnH6dlma_fi-60" value="&lt;font style=&quot;font-size: 12px;&quot;&gt;1&lt;/font&gt;" style="edgeLabel;html=1;align=center;verticalAlign=middle;resizable=0;points=[];fontSize=20;labelBackgroundColor=none;" vertex="1" connectable="0" parent="WIyWlLk6GJQsqaUBKTNV-1">
          <mxGeometry x="390.0037578176773" y="159.99720297541126" as="geometry">
            <mxPoint x="-20" y="146" as="offset" />
          </mxGeometry>
        </mxCell>
        <mxCell id="u9YOr9Z6LQnH6dlma_fi-62" value="&lt;font style=&quot;font-size: 12px;&quot;&gt;0...1&lt;/font&gt;" style="edgeLabel;html=1;align=center;verticalAlign=middle;resizable=0;points=[];fontSize=20;labelBackgroundColor=none;" vertex="1" connectable="0" parent="WIyWlLk6GJQsqaUBKTNV-1">
          <mxGeometry x="590.0037578176773" y="229.99720297541126" as="geometry">
            <mxPoint x="-164" y="105" as="offset" />
          </mxGeometry>
        </mxCell>
        <mxCell id="u9YOr9Z6LQnH6dlma_fi-63" value="&lt;font style=&quot;font-size: 12px;&quot;&gt;1&lt;/font&gt;" style="edgeLabel;html=1;align=center;verticalAlign=middle;resizable=0;points=[];fontSize=20;labelBackgroundColor=none;" vertex="1" connectable="0" parent="WIyWlLk6GJQsqaUBKTNV-1">
          <mxGeometry x="740.0037578176773" y="104.99720297541126" as="geometry">
            <mxPoint x="-164" y="105" as="offset" />
          </mxGeometry>
        </mxCell>
        <mxCell id="u9YOr9Z6LQnH6dlma_fi-64" value="&lt;span style=&quot;color: rgb(0, 0, 0); font-family: Helvetica; font-size: 12px; font-style: normal; font-variant-ligatures: normal; font-variant-caps: normal; font-weight: 400; letter-spacing: normal; orphans: 2; text-align: right; text-indent: 0px; text-transform: none; widows: 2; word-spacing: 0px; -webkit-text-stroke-width: 0px; white-space: nowrap; background-color: rgb(251, 251, 251); text-decoration-thickness: initial; text-decoration-style: initial; text-decoration-color: initial; display: inline !important; float: none;&quot;&gt;1&lt;/span&gt;" style="text;whiteSpace=wrap;html=1;" vertex="1" parent="WIyWlLk6GJQsqaUBKTNV-1">
          <mxGeometry x="630" y="250" width="10" height="20" as="geometry" />
        </mxCell>
        <mxCell id="u9YOr9Z6LQnH6dlma_fi-65" value="&lt;span style=&quot;color: rgb(0, 0, 0); font-family: Helvetica; font-size: 12px; font-style: normal; font-variant-ligatures: normal; font-variant-caps: normal; font-weight: 400; letter-spacing: normal; orphans: 2; text-align: right; text-indent: 0px; text-transform: none; widows: 2; word-spacing: 0px; -webkit-text-stroke-width: 0px; white-space: nowrap; background-color: rgb(251, 251, 251); text-decoration-thickness: initial; text-decoration-style: initial; text-decoration-color: initial; display: inline !important; float: none;&quot;&gt;1&lt;/span&gt;" style="text;whiteSpace=wrap;html=1;" vertex="1" parent="WIyWlLk6GJQsqaUBKTNV-1">
          <mxGeometry x="680" y="316" width="10" height="20" as="geometry" />
        </mxCell>
        <mxCell id="u9YOr9Z6LQnH6dlma_fi-66" value="*" style="edgeLabel;html=1;align=center;verticalAlign=middle;resizable=0;points=[];fontSize=20;labelBackgroundColor=none;" vertex="1" connectable="0" parent="WIyWlLk6GJQsqaUBKTNV-1">
          <mxGeometry x="600.0037578176773" y="349.99720297541126" as="geometry">
            <mxPoint x="-10" y="1" as="offset" />
          </mxGeometry>
        </mxCell>
        <mxCell id="u9YOr9Z6LQnH6dlma_fi-67" value="*" style="edgeLabel;html=1;align=center;verticalAlign=middle;resizable=0;points=[];fontSize=20;labelBackgroundColor=none;" vertex="1" connectable="0" parent="WIyWlLk6GJQsqaUBKTNV-1">
          <mxGeometry x="660.0037578176773" y="179.99720297541126" as="geometry">
            <mxPoint x="-10" y="1" as="offset" />
          </mxGeometry>
        </mxCell>
        <mxCell id="u9YOr9Z6LQnH6dlma_fi-68" value="*" style="edgeLabel;html=1;align=center;verticalAlign=middle;resizable=0;points=[];fontSize=20;labelBackgroundColor=none;" vertex="1" connectable="0" parent="WIyWlLk6GJQsqaUBKTNV-1">
          <mxGeometry x="770.0037578176773" y="139.99720297541126" as="geometry">
            <mxPoint x="-10" y="1" as="offset" />
          </mxGeometry>
        </mxCell>
        <mxCell id="u9YOr9Z6LQnH6dlma_fi-69" value="*" style="edgeLabel;html=1;align=center;verticalAlign=middle;resizable=0;points=[];fontSize=20;labelBackgroundColor=none;" vertex="1" connectable="0" parent="WIyWlLk6GJQsqaUBKTNV-1">
          <mxGeometry x="500.0037578176773" y="169.99720297541126" as="geometry">
            <mxPoint x="-10" y="1" as="offset" />
          </mxGeometry>
        </mxCell>
        <mxCell id="u9YOr9Z6LQnH6dlma_fi-72" value="*" style="edgeLabel;html=1;align=center;verticalAlign=middle;resizable=0;points=[];fontSize=20;labelBackgroundColor=none;" vertex="1" connectable="0" parent="WIyWlLk6GJQsqaUBKTNV-1">
          <mxGeometry x="410.0037578176773" y="39.997202975411255" as="geometry">
            <mxPoint x="-10" y="1" as="offset" />
          </mxGeometry>
        </mxCell>
        <mxCell id="u9YOr9Z6LQnH6dlma_fi-73" value="" style="endArrow=none;html=1;rounded=0;exitX=0.357;exitY=0;exitDx=0;exitDy=0;exitPerimeter=0;" edge="1" parent="WIyWlLk6GJQsqaUBKTNV-1" source="u9YOr9Z6LQnH6dlma_fi-20" target="u9YOr9Z6LQnH6dlma_fi-21">
          <mxGeometry width="50" height="50" relative="1" as="geometry">
            <mxPoint x="510" y="210" as="sourcePoint" />
            <mxPoint x="560" y="160" as="targetPoint" />
          </mxGeometry>
        </mxCell>
        <mxCell id="u9YOr9Z6LQnH6dlma_fi-76" value="*" style="edgeLabel;html=1;align=center;verticalAlign=middle;resizable=0;points=[];fontSize=20;labelBackgroundColor=none;" vertex="1" connectable="0" parent="WIyWlLk6GJQsqaUBKTNV-1">
          <mxGeometry x="570.0037578176773" y="139.99720297541126" as="geometry">
            <mxPoint x="-10" y="1" as="offset" />
          </mxGeometry>
        </mxCell>
        <mxCell id="u9YOr9Z6LQnH6dlma_fi-78" value="&lt;font style=&quot;font-size: 12px;&quot;&gt;1&lt;/font&gt;" style="edgeLabel;html=1;align=center;verticalAlign=middle;resizable=0;points=[];fontSize=20;labelBackgroundColor=none;" vertex="1" connectable="0" parent="WIyWlLk6GJQsqaUBKTNV-1">
          <mxGeometry x="720.0037578176773" y="-30.002797024588745" as="geometry">
            <mxPoint x="-164" y="105" as="offset" />
          </mxGeometry>
        </mxCell>
        <mxCell id="u9YOr9Z6LQnH6dlma_fi-79" value="&lt;font style=&quot;font-size: 12px;&quot;&gt;1&lt;/font&gt;" style="edgeLabel;html=1;align=center;verticalAlign=middle;resizable=0;points=[];fontSize=20;labelBackgroundColor=none;" vertex="1" connectable="0" parent="WIyWlLk6GJQsqaUBKTNV-1">
          <mxGeometry x="635.0037578176773" y="-70.00279702458874" as="geometry">
            <mxPoint x="-164" y="105" as="offset" />
          </mxGeometry>
        </mxCell>
        <mxCell id="u9YOr9Z6LQnH6dlma_fi-80" value="&lt;font style=&quot;font-size: 12px;&quot;&gt;1&lt;/font&gt;" style="edgeLabel;html=1;align=center;verticalAlign=middle;resizable=0;points=[];fontSize=20;labelBackgroundColor=none;" vertex="1" connectable="0" parent="WIyWlLk6GJQsqaUBKTNV-1">
          <mxGeometry x="560.0037578176773" y="-30.002797024588745" as="geometry">
            <mxPoint x="-164" y="105" as="offset" />
          </mxGeometry>
        </mxCell>
      </root>
    </mxGraphModel>
  </diagram>
</mxfile>
